<svg width="30" height="24" viewBox="0 0 30 24" fill="none" xmlns="http://www.w3.org/2000/svg">
<path fillRule="evenodd" clipRule="evenodd" d="M26.4 8.26C23.3 6.48 20 5.18 19.5 5C19.92 5.08 22.34 5.62 25.78 6.74C23.84 2.74 19.74 0 15 0C9.48 0 4.82 3.72 3.44 8.8C3.28 9.36 3.16 9.94 3.1 10.52C1.98 10.62 1.1 10.88 0.600002 11.38C-0.679998 12.66 1.12 14.28 3.6 15.72C6.7 17.5 10 18.8 10.5 18.98C10.08 18.9 7.66 18.36 4.22 17.24C6.18 21.24 10.26 23.98 15 23.98C20.52 23.98 25.18 20.24 26.56 15.18C26.72 14.62 26.84 14.04 26.9 13.46C28.02 13.36 28.9 13.1 29.4 12.6C30.68 11.32 28.88 9.7 26.4 8.26ZM12 20.5C11.18 20.5 10.5 19.82 10.5 19C10.5 18.18 11.18 17.5 12 17.5C12.82 17.5 13.5 18.18 13.5 19C13.5 19.82 12.82 20.5 12 20.5ZM18 6.5C17.18 6.5 16.5 5.82 16.5 5C16.5 4.18 17.18 3.5 18 3.5C18.82 3.5 19.5 4.18 19.5 5C19.5 5.82 18.82 6.5 18 6.5Z" fill="url(#paint0_linear_1472_156)"/>
<defs>
<linearGradient id="paint0_linear_1472_156" x1="15" y1="0" x2="15" y2="23.98" gradientUnits="userSpaceOnUse">
<stop stop-color="#320F99"/>
<stop offset="1" stop-color="#4B17E5"/>
</linearGradient>
</defs>
</svg>
